<svg width="384" height="384" viewBox="0 0 384 384" fill="none" xmlns="http://www.w3.org/2000/svg"><path fill="#fafafa" d="M0 0h384v384H0z"/><path d="M61 272.284v44.411c0 4.091 3.214 7.305 7.305 7.305h44.411c1.899 0 3.799-.73 5.113-2.191l159.532-159.385-54.785-54.785L63.191 267.025c-1.46 1.46-2.191 3.214-2.191 5.259Zm258.727-152.227c5.697-5.697 5.697-14.901 0-20.599l-34.185-34.185c-5.698-5.697-14.902-5.697-20.599 0l-26.735 26.735 54.784 54.784 26.735-26.735Z" fill="url(#a)"/><path d="M324 272.284v44.411c0 4.091-3.214 7.305-7.305 7.305h-44.411c-1.899 0-3.799-.73-5.113-2.191L107.639 162.424l54.785-54.785 159.385 159.386c1.461 1.46 2.191 3.214 2.191 5.259ZM65.273 120.057a14.548 14.548 0 0 1 0-20.599l34.185-34.185a14.548 14.548 0 0 1 20.599 0l26.735 26.735-54.784 54.784-26.735-26.735Z" fill="url(#b)"/><g clip-path="url(#c)"><path fill="#fafafa" d="M61 154h263v77H61z"/><path d="M92.09 181.091c-.272-2.303-1.378-4.091-3.317-5.364-1.94-1.272-4.319-1.909-7.137-1.909-2.06 0-3.863.334-5.409 1-1.53.667-2.727 1.584-3.59 2.75-.85 1.167-1.273 2.493-1.273 3.977 0 1.243.295 2.311.886 3.205a7.865 7.865 0 0 0 2.318 2.205 16.6 16.6 0 0 0 2.955 1.431c1.03.364 1.977.659 2.84.887l4.728 1.272a41.37 41.37 0 0 1 4.045 1.319 18.64 18.64 0 0 1 4.296 2.295c1.379.955 2.515 2.182 3.409 3.682.894 1.5 1.34 3.341 1.34 5.523 0 2.515-.658 4.788-1.977 6.818-1.302 2.03-3.212 3.644-5.727 4.841-2.5 1.197-5.538 1.795-9.113 1.795-3.334 0-6.22-.538-8.66-1.613-2.424-1.076-4.333-2.576-5.727-4.5-1.379-1.925-2.159-4.16-2.34-6.705h5.817c.152 1.758.743 3.212 1.773 4.364 1.046 1.136 2.364 1.984 3.955 2.545 1.606.546 3.333.818 5.182.818 2.151 0 4.083-.348 5.795-1.045 1.712-.712 3.068-1.697 4.068-2.955 1-1.272 1.5-2.757 1.5-4.454 0-1.546-.431-2.803-1.295-3.773-.864-.97-2-1.758-3.41-2.364a35.902 35.902 0 0 0-4.568-1.591l-5.727-1.636c-3.636-1.045-6.515-2.538-8.636-4.477-2.121-1.94-3.182-4.477-3.182-7.614 0-2.606.705-4.879 2.114-6.818 1.424-1.955 3.333-3.47 5.727-4.545 2.41-1.091 5.099-1.637 8.068-1.637 3 0 5.667.538 8 1.614 2.334 1.06 4.182 2.515 5.546 4.363 1.378 1.849 2.106 3.947 2.181 6.296h-5.454Zm28.813 35.636c-3.272 0-6.09-.772-8.454-2.318-2.364-1.545-4.182-3.674-5.455-6.386-1.272-2.712-1.909-5.811-1.909-9.296 0-3.545.652-6.674 1.955-9.386 1.318-2.727 3.151-4.856 5.5-6.386 2.363-1.546 5.121-2.319 8.272-2.319 2.455 0 4.667.455 6.637 1.364 1.97.909 3.583 2.182 4.841 3.818 1.257 1.637 2.038 3.546 2.341 5.727h-5.364c-.409-1.59-1.318-3-2.727-4.227-1.394-1.242-3.273-1.863-5.637-1.863-2.09 0-3.924.545-5.5 1.636-1.56 1.076-2.78 2.598-3.659 4.568-.863 1.955-1.295 4.25-1.295 6.886 0 2.697.424 5.046 1.273 7.046.863 2 2.075 3.553 3.636 4.659 1.576 1.106 3.424 1.659 5.545 1.659 1.394 0 2.659-.242 3.796-.727a7.835 7.835 0 0 0 2.886-2.091c.788-.909 1.349-2 1.682-3.273h5.364c-.303 2.061-1.053 3.917-2.25 5.568-1.182 1.637-2.75 2.94-4.705 3.909-1.939.955-4.197 1.432-6.773 1.432Zm35.75 0c-3.151 0-5.916-.75-8.295-2.25-2.364-1.5-4.212-3.598-5.546-6.295-1.318-2.697-1.977-5.849-1.977-9.455 0-3.636.659-6.81 1.977-9.522 1.334-2.713 3.182-4.819 5.546-6.319 2.379-1.5 5.144-2.25 8.295-2.25 3.152 0 5.91.75 8.273 2.25 2.379 1.5 4.227 3.606 5.546 6.319 1.333 2.712 2 5.886 2 9.522 0 3.606-.667 6.758-2 9.455-1.319 2.697-3.167 4.795-5.546 6.295-2.363 1.5-5.121 2.25-8.273 2.25Zm0-4.818c2.394 0 4.364-.614 5.909-1.841 1.546-1.227 2.69-2.841 3.432-4.841.743-2 1.114-4.166 1.114-6.5 0-2.333-.371-4.507-1.114-6.522-.742-2.016-1.886-3.644-3.432-4.887-1.545-1.242-3.515-1.863-5.909-1.863-2.394 0-4.363.621-5.909 1.863-1.545 1.243-2.689 2.871-3.432 4.887-.742 2.015-1.113 4.189-1.113 6.522 0 2.334.371 4.5 1.113 6.5.743 2 1.887 3.614 3.432 4.841 1.546 1.227 3.515 1.841 5.909 1.841ZM180.659 216v-34.909h5.182v5.273h.364c.636-1.728 1.787-3.129 3.454-4.205 1.667-1.076 3.546-1.614 5.636-1.614.394 0 .887.008 1.478.023a19.81 19.81 0 0 1 1.341.068v5.455c-.182-.046-.599-.114-1.25-.205a12.318 12.318 0 0 0-2.023-.159c-1.697 0-3.212.356-4.546 1.068a8.058 8.058 0 0 0-3.136 2.91c-.757 1.227-1.136 2.628-1.136 4.204V216h-5.364Zm37.386.727c-3.363 0-6.265-.742-8.704-2.227-2.424-1.5-4.296-3.591-5.614-6.273-1.303-2.697-1.954-5.833-1.954-9.409 0-3.576.651-6.727 1.954-9.454 1.318-2.743 3.152-4.879 5.5-6.409 2.364-1.546 5.121-2.319 8.273-2.319 1.818 0 3.614.303 5.386.909 1.773.607 3.387 1.591 4.841 2.955 1.455 1.348 2.614 3.136 3.478 5.364.863 2.227 1.295 4.969 1.295 8.227v2.273h-26.909v-4.637h21.454c0-1.969-.393-3.727-1.181-5.272-.773-1.546-1.879-2.766-3.319-3.66-1.424-.893-3.106-1.34-5.045-1.34-2.136 0-3.985.53-5.545 1.59a10.478 10.478 0 0 0-3.569 4.091 12.023 12.023 0 0 0-1.25 5.409v3.091c0 2.637.455 4.872 1.364 6.705.924 1.818 2.205 3.204 3.841 4.159 1.636.939 3.538 1.409 5.704 1.409 1.41 0 2.682-.197 3.819-.591a8.172 8.172 0 0 0 2.977-1.818c.833-.818 1.477-1.833 1.932-3.045l5.182 1.454a11.5 11.5 0 0 1-2.75 4.636c-1.288 1.319-2.879 2.349-4.773 3.091-1.894.728-4.023 1.091-6.387 1.091Zm53.887-47.272h5.636v30.818c0 3.182-.75 6.022-2.25 8.522-1.485 2.485-3.583 4.447-6.295 5.887-2.712 1.424-5.894 2.136-9.546 2.136-3.651 0-6.833-.712-9.545-2.136-2.712-1.44-4.818-3.402-6.318-5.887-1.485-2.5-2.228-5.34-2.228-8.522v-30.818h5.637v30.363c0 2.273.5 4.296 1.5 6.068 1 1.758 2.424 3.144 4.272 4.159 1.864 1 4.091 1.5 6.682 1.5s4.818-.5 6.682-1.5c1.864-1.015 3.288-2.401 4.273-4.159 1-1.772 1.5-3.795 1.5-6.068v-30.363ZM288.824 216v-46.545h15.727c3.652 0 6.637.659 8.955 1.977 2.333 1.303 4.06 3.068 5.182 5.295 1.121 2.228 1.681 4.712 1.681 7.455 0 2.742-.56 5.235-1.681 7.477-1.107 2.243-2.819 4.03-5.137 5.364-2.318 1.318-5.288 1.977-8.909 1.977h-11.273v-5h11.091c2.5 0 4.508-.432 6.023-1.295 1.515-.864 2.614-2.031 3.295-3.5.697-1.485 1.046-3.16 1.046-5.023 0-1.864-.349-3.53-1.046-5-.681-1.47-1.787-2.621-3.318-3.455-1.53-.848-3.56-1.272-6.091-1.272h-9.909V216h-5.636Z" fill="url(#d)"/></g><defs><linearGradient id="a" x1="61" y1="154" x2="324" y2="233" gradientUnits="userSpaceOnUse"><stop stop-color="#5D5FEF"/><stop offset="1" stop-color="#EF5D5D"/></linearGradient><linearGradient id="b" x1="61" y1="154" x2="324" y2="231" gradientUnits="userSpaceOnUse"><stop stop-color="#5D5FEF"/><stop offset="1" stop-color="#EF5D5D"/></linearGradient><linearGradient id="d" x1="61.5" y1="154.5" x2="324.5" y2="231.5" gradientUnits="userSpaceOnUse"><stop stop-color="#5D5FEF"/><stop offset="1" stop-color="#EF5D5D"/></linearGradient><clipPath id="c"><path fill="#fff" d="M61 154h263v77H61z"/></clipPath></defs></svg>