<svg width="384" height="384" viewBox="0 0 384 384" fill="none" xmlns="http://www.w3.org/2000/svg">
<rect width="384" height="384" fill="#E7E7E7"/>
<path d="M61 272.284V316.695C61 320.786 64.214 324 68.3045 324H112.716C114.615 324 116.515 323.27 117.829 321.809L277.361 162.424L222.576 107.639L63.1914 267.025C61.7305 268.485 61 270.239 61 272.284ZM319.727 120.057C325.424 114.36 325.424 105.156 319.727 99.4584L285.542 65.2732C279.844 59.5756 270.64 59.5756 264.943 65.2732L238.208 92.0078L292.992 146.792L319.727 120.057Z" fill="url(#paint0_linear_225_2)"/>
<path d="M324 272.284V316.695C324 320.786 320.786 324 316.695 324H272.284C270.385 324 268.485 323.27 267.171 321.809L107.639 162.424L162.424 107.639L321.809 267.025C323.27 268.485 324 270.239 324 272.284ZM65.2732 120.057C59.5756 114.36 59.5756 105.156 65.2732 99.4584L99.4584 65.2732C105.156 59.5756 114.36 59.5756 120.057 65.2732L146.792 92.0078L92.0078 146.792L65.2732 120.057Z" fill="url(#paint1_linear_225_2)"/>
<g clip-path="url(#clip0_225_2)">
<rect width="263" height="77" transform="translate(61 154)" fill="#E7E7E7"/>
<path d="M92.0909 181.091C91.8182 178.788 90.7121 177 88.7727 175.727C86.8333 174.455 84.4545 173.818 81.6364 173.818C79.5758 173.818 77.7727 174.152 76.2273 174.818C74.697 175.485 73.5 176.402 72.6364 177.568C71.7879 178.735 71.3636 180.061 71.3636 181.545C71.3636 182.788 71.6591 183.856 72.25 184.75C72.8561 185.629 73.6288 186.364 74.5682 186.955C75.5076 187.53 76.4924 188.008 77.5227 188.386C78.553 188.75 79.5 189.045 80.3636 189.273L85.0909 190.545C86.303 190.864 87.6515 191.303 89.1364 191.864C90.6364 192.424 92.0682 193.189 93.4318 194.159C94.8106 195.114 95.947 196.341 96.8409 197.841C97.7349 199.341 98.1818 201.182 98.1818 203.364C98.1818 205.879 97.5227 208.152 96.2045 210.182C94.9015 212.212 92.9924 213.826 90.4773 215.023C87.9773 216.22 84.9394 216.818 81.3636 216.818C78.0303 216.818 75.1439 216.28 72.7045 215.205C70.2803 214.129 68.3712 212.629 66.9773 210.705C65.5985 208.78 64.8182 206.545 64.6364 204H70.4545C70.6061 205.758 71.197 207.212 72.2273 208.364C73.2727 209.5 74.5909 210.348 76.1818 210.909C77.7879 211.455 79.5152 211.727 81.3636 211.727C83.5152 211.727 85.447 211.379 87.1591 210.682C88.8712 209.97 90.2273 208.985 91.2273 207.727C92.2273 206.455 92.7273 204.97 92.7273 203.273C92.7273 201.727 92.2955 200.47 91.4318 199.5C90.5682 198.53 89.4318 197.742 88.0227 197.136C86.6136 196.53 85.0909 196 83.4545 195.545L77.7273 193.909C74.0909 192.864 71.2121 191.371 69.0909 189.432C66.9697 187.492 65.9091 184.955 65.9091 181.818C65.9091 179.212 66.6136 176.939 68.0227 175C69.447 173.045 71.3561 171.53 73.75 170.455C76.1591 169.364 78.8485 168.818 81.8182 168.818C84.8182 168.818 87.4848 169.356 89.8182 170.432C92.1515 171.492 94 172.947 95.3636 174.795C96.7424 176.644 97.4697 178.742 97.5455 181.091H92.0909ZM120.903 216.727C117.631 216.727 114.813 215.955 112.449 214.409C110.085 212.864 108.267 210.735 106.994 208.023C105.722 205.311 105.085 202.212 105.085 198.727C105.085 195.182 105.737 192.053 107.04 189.341C108.358 186.614 110.191 184.485 112.54 182.955C114.903 181.409 117.661 180.636 120.812 180.636C123.267 180.636 125.479 181.091 127.449 182C129.419 182.909 131.032 184.182 132.29 185.818C133.547 187.455 134.328 189.364 134.631 191.545H129.267C128.858 189.955 127.949 188.545 126.54 187.318C125.146 186.076 123.267 185.455 120.903 185.455C118.813 185.455 116.979 186 115.403 187.091C113.843 188.167 112.623 189.689 111.744 191.659C110.881 193.614 110.449 195.909 110.449 198.545C110.449 201.242 110.873 203.591 111.722 205.591C112.585 207.591 113.797 209.144 115.358 210.25C116.934 211.356 118.782 211.909 120.903 211.909C122.297 211.909 123.562 211.667 124.699 211.182C125.835 210.697 126.797 210 127.585 209.091C128.373 208.182 128.934 207.091 129.267 205.818H134.631C134.328 207.879 133.578 209.735 132.381 211.386C131.199 213.023 129.631 214.326 127.676 215.295C125.737 216.25 123.479 216.727 120.903 216.727ZM156.653 216.727C153.502 216.727 150.737 215.977 148.358 214.477C145.994 212.977 144.146 210.879 142.812 208.182C141.494 205.485 140.835 202.333 140.835 198.727C140.835 195.091 141.494 191.917 142.812 189.205C144.146 186.492 145.994 184.386 148.358 182.886C150.737 181.386 153.502 180.636 156.653 180.636C159.805 180.636 162.563 181.386 164.926 182.886C167.305 184.386 169.153 186.492 170.472 189.205C171.805 191.917 172.472 195.091 172.472 198.727C172.472 202.333 171.805 205.485 170.472 208.182C169.153 210.879 167.305 212.977 164.926 214.477C162.563 215.977 159.805 216.727 156.653 216.727ZM156.653 211.909C159.047 211.909 161.017 211.295 162.562 210.068C164.108 208.841 165.252 207.227 165.994 205.227C166.737 203.227 167.108 201.061 167.108 198.727C167.108 196.394 166.737 194.22 165.994 192.205C165.252 190.189 164.108 188.561 162.562 187.318C161.017 186.076 159.047 185.455 156.653 185.455C154.259 185.455 152.29 186.076 150.744 187.318C149.199 188.561 148.055 190.189 147.312 192.205C146.57 194.22 146.199 196.394 146.199 198.727C146.199 201.061 146.57 203.227 147.312 205.227C148.055 207.227 149.199 208.841 150.744 210.068C152.29 211.295 154.259 211.909 156.653 211.909ZM180.659 216V181.091H185.841V186.364H186.205C186.841 184.636 187.992 183.235 189.659 182.159C191.326 181.083 193.205 180.545 195.295 180.545C195.689 180.545 196.182 180.553 196.773 180.568C197.364 180.583 197.811 180.606 198.114 180.636V186.091C197.932 186.045 197.515 185.977 196.864 185.886C196.227 185.78 195.553 185.727 194.841 185.727C193.144 185.727 191.629 186.083 190.295 186.795C188.977 187.492 187.932 188.462 187.159 189.705C186.402 190.932 186.023 192.333 186.023 193.909V216H180.659ZM218.045 216.727C214.682 216.727 211.78 215.985 209.341 214.5C206.917 213 205.045 210.909 203.727 208.227C202.424 205.53 201.773 202.394 201.773 198.818C201.773 195.242 202.424 192.091 203.727 189.364C205.045 186.621 206.879 184.485 209.227 182.955C211.591 181.409 214.348 180.636 217.5 180.636C219.318 180.636 221.114 180.939 222.886 181.545C224.659 182.152 226.273 183.136 227.727 184.5C229.182 185.848 230.341 187.636 231.205 189.864C232.068 192.091 232.5 194.833 232.5 198.091V200.364H205.591V195.727H227.045C227.045 193.758 226.652 192 225.864 190.455C225.091 188.909 223.985 187.689 222.545 186.795C221.121 185.902 219.439 185.455 217.5 185.455C215.364 185.455 213.515 185.985 211.955 187.045C210.409 188.091 209.22 189.455 208.386 191.136C207.553 192.818 207.136 194.621 207.136 196.545V199.636C207.136 202.273 207.591 204.508 208.5 206.341C209.424 208.159 210.705 209.545 212.341 210.5C213.977 211.439 215.879 211.909 218.045 211.909C219.455 211.909 220.727 211.712 221.864 211.318C223.015 210.909 224.008 210.303 224.841 209.5C225.674 208.682 226.318 207.667 226.773 206.455L231.955 207.909C231.409 209.667 230.492 211.212 229.205 212.545C227.917 213.864 226.326 214.894 224.432 215.636C222.538 216.364 220.409 216.727 218.045 216.727ZM271.932 169.455H277.568V200.273C277.568 203.455 276.818 206.295 275.318 208.795C273.833 211.28 271.735 213.242 269.023 214.682C266.311 216.106 263.129 216.818 259.477 216.818C255.826 216.818 252.644 216.106 249.932 214.682C247.22 213.242 245.114 211.28 243.614 208.795C242.129 206.295 241.386 203.455 241.386 200.273V169.455H247.023V199.818C247.023 202.091 247.523 204.114 248.523 205.886C249.523 207.644 250.947 209.03 252.795 210.045C254.659 211.045 256.886 211.545 259.477 211.545C262.068 211.545 264.295 211.045 266.159 210.045C268.023 209.03 269.447 207.644 270.432 205.886C271.432 204.114 271.932 202.091 271.932 199.818V169.455ZM288.824 216V169.455H304.551C308.203 169.455 311.188 170.114 313.506 171.432C315.839 172.735 317.566 174.5 318.688 176.727C319.809 178.955 320.369 181.439 320.369 184.182C320.369 186.924 319.809 189.417 318.688 191.659C317.581 193.902 315.869 195.689 313.551 197.023C311.233 198.341 308.263 199 304.642 199H293.369V194H304.46C306.96 194 308.968 193.568 310.483 192.705C311.998 191.841 313.097 190.674 313.778 189.205C314.475 187.72 314.824 186.045 314.824 184.182C314.824 182.318 314.475 180.652 313.778 179.182C313.097 177.712 311.991 176.561 310.46 175.727C308.93 174.879 306.9 174.455 304.369 174.455H294.46V216H288.824Z" fill="url(#paint2_linear_225_2)"/>
</g>
<defs>
<linearGradient id="paint0_linear_225_2" x1="61" y1="154" x2="324" y2="233" gradientUnits="userSpaceOnUse">
<stop stop-color="#5D5FEF"/>
<stop offset="1" stop-color="#EF5D5D"/>
</linearGradient>
<linearGradient id="paint1_linear_225_2" x1="61" y1="154" x2="324" y2="231" gradientUnits="userSpaceOnUse">
<stop stop-color="#5D5FEF"/>
<stop offset="1" stop-color="#EF5D5D"/>
</linearGradient>
<linearGradient id="paint2_linear_225_2" x1="61.5" y1="154.5" x2="324.5" y2="231.5" gradientUnits="userSpaceOnUse">
<stop stop-color="#5D5FEF"/>
<stop offset="1" stop-color="#EF5D5D"/>
</linearGradient>
<clipPath id="clip0_225_2">
<rect width="263" height="77" fill="white" transform="translate(61 154)"/>
</clipPath>
</defs>
</svg>
